<svg width="40" height="40" viewBox="0 0 40 40" xmlns="http://www.w3.org/2000/svg" xmlns:xlink="http://www.w3.org/1999/xlink"><defs><path d="M20 0c-5.432 0-6.113.023-8.246.12-2.13.097-3.583.436-4.855.93-1.316.51-2.43 1.195-3.543 2.307C2.245 4.47 1.56 5.584 1.05 6.9.556 8.17.218 9.624.12 11.753.023 13.887 0 14.568 0 20s.023 6.113.12 8.246c.098 2.13.436 3.583.93 4.855.51 1.316 1.195 2.43 2.307 3.543C4.47 37.755 5.584 38.44 6.9 38.95c1.27.494 2.725.833 4.854.93 2.133.097 2.814.12 8.246.12s6.113-.023 8.246-.12c2.13-.097 3.583-.436 4.855-.93 1.316-.51 2.43-1.195 3.543-2.307 1.112-1.112 1.796-2.227 2.307-3.542.495-1.27.833-2.725.93-4.854.097-2.133.12-2.814.12-8.246s-.023-6.113-.12-8.246c-.097-2.13-.435-3.583-.93-4.855-.51-1.316-1.195-2.43-2.307-3.543C35.53 2.245 34.416 1.56 33.1 1.05 31.83.556 30.376.217 28.247.12 26.113.023 25.432 0 20 0m0 3.604c5.34 0 5.973.02 8.082.116 1.95.09 3.01.415 3.714.69.933.362 1.6.795 2.3 1.495.7.7 1.132 1.366 1.495 2.3.275.704.6 1.763.69 3.713.096 2.11.116 2.742.116 8.082 0 5.34-.02 5.973-.116 8.082-.09 1.95-.415 3.01-.69 3.713-.362.934-.795 1.6-1.495 2.3-.7.7-1.366 1.133-2.3 1.496-.704.275-1.763.6-3.713.69-2.11.096-2.74.116-8.082.116-5.34 0-5.973-.02-8.082-.116-1.95-.09-3.01-.415-3.713-.69-.934-.362-1.6-.795-2.3-1.495-.7-.7-1.133-1.366-1.496-2.3-.275-.704-.6-1.763-.69-3.713-.096-2.11-.116-2.742-.116-8.082 0-5.34.02-5.973.116-8.082.09-1.95.415-3.01.69-3.713.362-.934.795-1.6 1.495-2.3.7-.7 1.366-1.133 2.3-1.496.704-.275 1.763-.6 3.713-.69 2.11-.096 2.742-.116 8.082-.116zm0 6.126C14.328 9.73 9.73 14.328 9.73 20S14.328 30.27 20 30.27 30.27 25.672 30.27 20 25.672 9.73 20 9.73zm0 16.937c-3.682 0-6.667-2.985-6.667-6.667s2.985-6.667 6.667-6.667 6.667 2.985 6.667 6.667-2.985 6.667-6.667 6.667zM33.076 9.324c0-1.326-1.074-2.4-2.4-2.4-1.325 0-2.4 1.074-2.4 2.4 0 1.325 1.075 2.4 2.4 2.4 1.326 0 2.4-1.075 2.4-2.4z" id="a"/></defs><use fill="#FFFFFE" xlink:href="#a" fill-rule="evenodd"/></svg>